# xmcd
# 
# Track frame offsets:
#     150
#     12059
#     30289
#     49039
#     66339
#     81040
#     91559
#     111209
#     126134
#     151073
#     177658
# 
# Disc length: 2796
# 
# Revision: 11
# Processed by: cddbd v1.5.2PL0 Copyright (c) Steve Scherf et al.
# Submitted via: fre:ac v1.0.31
# 
DISCID=790aea0b
DTITLE=Bruce Springsteen - Lost sessions Disc 2
DYEAR=2010
DGENRE=Rock/Pop
TTITLE0=Save My Love
TTITLE1=Ain't Good Enough For You
TTITLE2=Fire
TTITLE3=Spanish Eyes
TTITLE4=It's A Shame
TTITLE5=Come On
TTITLE6=Talk To Me
TTITLE7=The Little Things (My Baby Does)
TTITLE8=Breakaway
TTITLE9=The Promise
TTITLE10=City Of Night
EXTD=YEAR: 2010
EXTT0=
EXTT1=
EXTT2=
EXTT3=
EXTT4=
EXTT5=
EXTT6=
EXTT7=
EXTT8=
EXTT9=
EXTT10=
PLAYORDER=
